HIERARCHY
ROOT hip
{
	OFFSET 0.000000 0.000000 0.000000 
	CHANNELS 6 Xposition Yposition Zposition Xrotation Zrotation Yrotation
	JOINT abdomen
	{
		OFFSET 0.000000 3.402643 0.000000 
		CHANNELS 3 Xrotation Zrotation Yrotation
		JOINT chest
		{
			OFFSET 0.000000 8.438565 -0.680529 
			CHANNELS 3 Xrotation Zrotation Yrotation
			JOINT neck
			{
				OFFSET 0.000000 10.207942 -0.272212 
				CHANNELS 3 Xrotation Zrotation Yrotation
				JOINT head
				{
					OFFSET 0.000000 3.130431 0.000000 
					CHANNELS 3 Xrotation Zrotation Yrotation
					End Site
					{
						OFFSET 0.000000 3.130435 0.000000 
					}
				}
			}
			JOINT lCollar
			{
				OFFSET 3.470700 6.669187 -0.816635 
				CHANNELS 3 Yrotation Zrotation Xrotation
				JOINT lShldr
				{
					OFFSET 3.198488 0.000000 0.000000 
					CHANNELS 3 Zrotation Yrotation Xrotation
					JOINT lForeArm
					{
						OFFSET 10.139888 0.000000 0.000000 
						CHANNELS 3 Yrotation Zrotation Xrotation
						JOINT lHand
						{
							OFFSET 8.370511 0.000000 0.000000 
							CHANNELS 3 Zrotation Yrotation Xrotation
							End Site
							{
								OFFSET 4.083176 0.000000 0.000000 
							}
						}
					}
				}
			}
			JOINT rCollar
			{
				OFFSET -3.470700 6.669187 -0.816635 
				CHANNELS 3 Yrotation Zrotation Xrotation
				JOINT rShldr
				{
					OFFSET -3.198488 0.000000 0.000000 
					CHANNELS 3 Zrotation Yrotation Xrotation
					JOINT rForeArm
					{
						OFFSET -10.139888 0.000000 0.000000 
						CHANNELS 3 Yrotation Zrotation Xrotation
						JOINT rHand
						{
							OFFSET -8.370511 0.000000 0.000000 
							CHANNELS 3 Zrotation Yrotation Xrotation
							End Site
							{
								OFFSET -4.083176 0.000000 0.000000 
							}
						}
					}
				}
			}
		}
	}
	JOINT lThigh
	{
		OFFSET 5.308129 -1.633274 1.361059 
		CHANNELS 3 Xrotation Zrotation Yrotation
		JOINT lShin
		{
			OFFSET -2.041588 -20.007561 0.000000 
			CHANNELS 3 Xrotation Zrotation Yrotation
			JOINT lFoot
			{
				OFFSET 0.000000 -19.190928 -1.224953 
				CHANNELS 3 Xrotation Yrotation Zrotation
				End Site
				{
					OFFSET 0.000000 -2.449906 4.627600 
				}
			}
		}
	}
	JOINT rThigh
	{
		OFFSET -5.308129 -1.633274 1.361059 
		CHANNELS 3 Xrotation Zrotation Yrotation
		JOINT rShin
		{
			OFFSET 2.041588 -20.007561 0.000000 
			CHANNELS 3 Xrotation Zrotation Yrotation
			JOINT rFoot
			{
				OFFSET 0.000000 -19.190928 -1.224953 
				CHANNELS 3 Xrotation Yrotation Zrotation
				End Site
				{
					OFFSET 0.000000 -2.449906 4.627600 
				}
			}
		}
	}
}
MOTION
Frames: 20
Frame Time: 0.016667
-1.491223 45.019375 0.165355 6.198590 -5.310750 -8.955100 -21.475100 1.081400 0.686829 16.464500 -0.750036 0.512638 5.327710 16.099600 -19.926100 11.401200 11.047400 -9.025530 2.000000 -2.000000 0.000000 -91.260902 -0.581105 142.589005 75.557198 -0.248949 0.132445 0.210007 -0.160363 131.320007 -2.000000 2.000000 0.000000 88.699303 6.198780 168.656998 -29.443701 0.333906 0.067209 -0.064030 0.054746 -156.873001 -18.383846 4.957886 6.167679 28.509186 2.625424 2.210911 -6.632659 16.575745 2.770537 -9.754471 9.643844 3.801405 21.629095 -2.296658 -1.875368 -14.493071 -12.009771 -3.788438 
-1.638476 44.995705 0.023217 6.162570 -5.621830 -8.761220 -21.300699 1.149110 0.505770 16.620501 -0.964517 0.447212 5.131970 16.196301 -19.919600 11.362200 11.077500 -8.980520 2.000000 -2.000000 0.000000 -90.997498 -0.864029 142.735992 75.664597 -0.248700 0.132509 0.209816 -0.160368 131.389008 -2.000000 2.000000 0.000000 88.650398 6.443650 168.345001 -29.277700 0.334101 0.066864 -0.064208 0.055234 -157.057999 -18.902681 5.586353 6.361533 29.314632 2.632152 2.257493 -6.354587 15.877769 2.569225 -9.746709 10.077776 3.586686 21.496210 -2.259391 -1.891179 -14.359139 -11.955216 -3.752853 
-1.777325 44.980507 -0.116351 6.165640 -5.903400 -8.557140 -21.272900 1.241200 0.334200 16.571501 -1.120330 0.380764 5.024910 16.261801 -19.865000 11.343600 11.126400 -8.939110 2.000000 -2.000000 0.000000 -90.802498 -0.951511 142.951004 75.742699 -0.248520 0.132555 0.209679 -0.160372 131.438004 -2.000000 2.000000 0.000000 88.611000 6.660380 167.535004 -28.818701 0.334632 0.065906 -0.063845 0.054232 -156.677994 -19.438723 6.215940 6.588318 30.138885 2.637155 2.284373 -6.411624 15.118285 2.426801 -9.851570 10.469551 3.250728 21.389507 -2.250860 -1.901526 -14.136243 -11.874640 -3.681763 
-1.905537 44.967903 -0.248763 6.167510 -6.068450 -8.369820 -21.254499 1.328790 0.206235 16.532301 -1.227440 0.340235 5.014110 16.331499 -19.833599 11.354900 11.174600 -8.911590 2.000000 -2.000000 0.000000 -90.656502 -1.068100 143.264008 75.723198 -0.248565 0.132543 0.209488 -0.160378 131.505997 -2.000000 2.000000 0.000000 88.542099 6.818790 166.608002 -28.291300 0.335234 0.064801 -0.063379 0.052917 -156.179993 -20.001322 6.755914 6.886867 30.857838 2.628486 2.347932 -6.434026 14.205992 2.326708 -9.979168 10.734468 2.864144 21.354683 -2.214025 -1.915212 -14.006999 -11.721189 -3.617593 
-2.027054 44.956837 -0.368593 6.128560 -6.098030 -8.241840 -21.255501 1.415190 0.130736 16.502899 -1.256620 0.313636 5.088500 16.366899 -19.832001 11.395200 11.192900 -8.921100 2.000000 -2.000000 0.000000 -90.559303 -1.194320 143.645004 75.635300 -0.248768 0.132491 0.209324 -0.160382 131.565002 -2.000000 2.000000 0.000000 88.424400 6.899040 165.690002 -27.666300 0.335933 0.063484 -0.062960 0.051702 -155.720993 -20.319187 7.176807 7.329426 31.379618 2.619288 2.385803 -6.571304 13.294389 2.263841 -10.139022 10.866837 2.580705 21.474218 -2.203567 -1.930464 -13.969260 -11.583515 -3.561493 
-2.146289 44.944736 -0.474699 6.039190 -6.011620 -8.203770 -21.285500 1.494600 0.120071 16.385799 -1.207730 0.322421 5.297460 16.347300 -19.837099 11.464400 11.171700 -8.939600 2.000000 -2.000000 0.000000 -90.491699 -1.271450 144.162003 75.508301 -0.249062 0.132416 0.209133 -0.160387 131.632996 -2.000000 2.000000 0.000000 88.287102 6.930660 164.684006 -26.875299 0.336798 0.061806 -0.062499 0.050328 -155.203003 -20.548923 7.526739 7.844188 31.919277 2.627054 2.417604 -6.960273 12.423992 2.237793 -10.275848 10.902225 2.479250 21.760008 -2.198055 -1.943675 -14.044185 -11.578238 -3.546454 
-2.262997 44.928257 -0.567362 5.900160 -5.867410 -8.203750 -21.285900 1.560670 0.157222 16.317600 -1.110240 0.345943 5.527710 16.306299 -19.853800 11.542600 11.121100 -8.979550 2.000000 -2.000000 0.000000 -90.414497 -1.377580 144.826996 75.303299 -0.249535 0.132293 0.209133 -0.160387 131.632996 -2.000000 2.000000 0.000000 88.159500 7.001260 163.707993 -25.849899 0.337885 0.059614 -0.062303 0.049730 -154.977997 -20.574293 7.803645 8.348291 32.294067 2.611655 2.446042 -7.804276 11.401258 2.283669 -10.402351 10.893947 2.467858 22.074436 -2.200384 -1.957237 -14.140528 -11.624585 -3.548145 
-2.372572 44.914745 -0.645153 5.741410 -5.703860 -8.180020 -21.286400 1.609600 0.148652 16.288401 -1.003070 0.348284 5.723920 16.228701 -19.858700 11.591000 11.071400 -9.005730 2.000000 -2.000000 0.000000 -90.357002 -1.473710 145.608002 75.068901 -0.250076 0.132150 0.209543 -0.160376 131.485992 -2.000000 2.000000 0.000000 88.022202 7.091430 162.712006 -24.687799 0.339068 0.057106 -0.061984 0.048741 -154.606995 -20.521332 8.057251 8.737212 32.656921 2.614846 2.460580 -9.156696 10.143870 2.382044 -10.512870 10.873261 2.508706 22.503893 -2.230832 -1.973762 -14.304087 -11.735970 -3.562215 
-2.469195 44.917068 -0.709214 5.572990 -5.540260 -8.108400 -21.286900 1.648240 0.112651 16.317801 -0.905719 0.330789 5.895710 16.153799 -19.825100 11.600100 11.042000 -9.027170 2.000000 -2.000000 0.000000 -90.309402 -1.491360 146.554993 74.834503 -0.250616 0.132004 0.210554 -0.160345 131.125000 -2.000000 2.000000 0.000000 87.865097 7.191700 161.559998 -23.584200 0.340145 0.054703 -0.061120 0.045946 -153.561996 -20.490240 8.238948 8.833433 33.135105 2.637706 2.458807 -10.638429 8.884306 2.420101 -10.489690 10.814869 2.571797 22.670855 -2.236702 -1.990944 -14.319193 -11.867943 -3.580755 
-2.549943 44.929932 -0.762983 5.394990 -5.386330 -8.008430 -21.297001 1.665160 0.074346 16.317900 -0.818069 0.314529 6.067380 16.078699 -19.789200 11.619200 11.012500 -9.046760 2.000000 -2.000000 0.000000 -90.271896 -1.410910 147.716995 74.600098 -0.251155 0.131857 0.211838 -0.160296 130.666000 -2.000000 2.000000 0.000000 87.717499 7.292500 160.164001 -22.549101 0.341112 0.052431 -0.059832 0.041393 -151.873001 -20.365547 8.332191 8.609810 33.537994 2.633389 2.479954 -11.808551 7.885901 2.412963 -10.410360 10.741014 2.616202 22.738829 -2.243978 -1.990985 -14.323684 -11.971366 -3.613829 
-2.613358 44.943310 -0.807307 5.197660 -5.251870 -7.899620 -21.346300 1.694210 0.040633 16.239901 -0.749820 0.300734 6.260660 15.972300 -19.778999 11.637700 10.963500 -9.078660 2.000000 -2.000000 0.000000 -90.292900 -1.261930 148.947998 74.375504 -0.251672 0.131714 0.213013 -0.160242 130.246002 -2.000000 2.000000 0.000000 87.599098 7.354520 158.630997 -21.494400 0.342056 0.050098 -0.058685 0.036832 -150.192993 -20.213455 8.364961 8.150503 33.990108 2.636042 2.521619 -12.750011 7.293759 2.467608 -10.283614 10.670949 2.687805 22.835880 -2.254930 -1.991159 -14.357266 -12.128372 -3.637430 
-2.660123 44.955029 -0.841059 5.020140 -5.126850 -7.784550 -21.444500 1.724960 -0.016275 16.083700 -0.671776 0.277155 6.479810 15.807700 -19.739000 11.665600 10.895000 -9.101540 2.000000 -2.000000 0.000000 -90.460297 -1.044750 150.080002 74.180199 -0.252120 0.131588 0.213914 -0.160195 129.923996 -2.000000 2.000000 0.000000 87.470703 7.309000 157.136002 -20.537300 0.342875 0.047966 -0.057711 0.032426 -148.582001 -19.991545 8.357280 7.597046 34.537590 2.652668 2.527031 -13.386018 7.309698 2.557017 -10.197153 10.617723 2.800838 22.930973 -2.282692 -1.984813 -14.372658 -12.312205 -3.649047 
-2.692635 44.970219 -0.865365 4.862600 -5.040480 -7.664630 -21.493799 1.740230 -0.086727 16.054399 -0.623072 0.234604 6.647660 15.655100 -19.706400 11.683400 10.817000 -9.117830 2.000000 -2.000000 0.000000 -90.764198 -0.915812 151.037003 73.984901 -0.252569 0.131460 0.214187 -0.160180 129.826004 -2.000000 2.000000 0.000000 87.381500 7.302310 155.729004 -19.726801 0.343541 0.046150 -0.056928 0.028372 -147.106995 -19.733959 8.331932 6.940318 35.040207 2.636503 2.572516 -13.531281 7.897309 2.733656 -10.057059 10.586801 2.961792 22.920103 -2.294108 -1.987164 -14.371570 -12.558069 -3.726055 
-2.712620 44.985924 -0.881384 4.715130 -4.983160 -7.539540 -21.474501 1.736840 -0.179216 16.171600 -0.623171 0.194267 6.772870 15.515100 -19.658001 11.691400 10.749000 -9.105420 2.000000 -2.000000 0.000000 -91.194702 -0.875133 151.807999 73.809097 -0.252972 0.131344 0.213887 -0.160196 129.934006 -2.000000 2.000000 0.000000 87.341103 7.393150 154.362000 -19.013901 0.344105 0.044545 -0.056300 0.024623 -145.750000 -19.440117 8.312845 6.300958 35.560955 2.629454 2.600257 -13.414105 8.775784 2.953323 -9.888968 10.580597 3.192854 22.869766 -2.303663 -1.979807 -14.301044 -12.861441 -3.781250 
-2.720281 44.998268 -0.891966 4.567890 -4.954990 -7.436600 -21.474701 1.729810 -0.281670 16.240000 -0.632965 0.145430 6.925160 15.355700 -19.573099 11.709200 10.671000 -9.082740 2.000000 -2.000000 0.000000 -91.732597 -0.795669 152.442993 73.691902 -0.253240 0.131265 0.213232 -0.160231 130.167999 -2.000000 2.000000 0.000000 87.339699 7.415360 153.112000 -18.427900 0.344553 0.043221 -0.055837 0.021430 -144.598007 -19.127373 8.320214 5.736540 36.177746 2.644344 2.623526 -13.278922 9.499402 3.110405 -9.707302 10.584047 3.386567 22.809483 -2.310463 -1.962756 -14.263657 -13.145763 -3.851376 
-2.716810 45.004578 -0.898831 4.430460 -4.926710 -7.354170 -21.543200 1.725450 -0.376625 16.200899 -0.642670 0.097775 7.144760 15.175500 -19.441401 11.746500 10.582900 -9.049850 2.000000 -2.000000 0.000000 -92.358101 -0.628515 152.979996 73.701698 -0.253218 0.131272 0.212877 -0.160249 130.294998 -2.000000 2.000000 0.000000 87.348503 7.309910 152.184006 -18.047100 0.344838 0.042358 -0.055586 0.019477 -143.893997 -18.724918 8.334065 5.288186 36.648014 2.648374 2.636120 -13.033584 9.847121 3.157710 -9.546383 10.554367 3.511734 22.798920 -2.314216 -1.953974 -14.307801 -13.285256 -3.911313 
-2.704194 45.005096 -0.900830 4.322520 -4.907940 -7.314180 -21.611700 1.724490 -0.462500 16.181400 -0.632916 0.058187 7.392560 15.014600 -19.269501 11.783800 10.494800 -8.985970 2.000000 -2.000000 0.000000 -93.022697 -0.451715 153.457993 73.760300 -0.253083 0.131311 0.212822 -0.160251 130.315002 -2.000000 2.000000 0.000000 87.386902 7.135150 151.695007 -17.881100 0.344960 0.041981 -0.055546 0.019151 -143.776993 -18.294687 8.337749 4.938622 36.972427 2.643166 2.658024 -12.712279 9.696588 3.090791 -9.398985 10.511812 3.575649 22.760132 -2.313631 -1.964316 -14.315210 -13.339455 -3.917800 
-2.681670 45.001110 -0.897404 4.243920 -4.879230 -7.305340 -21.680000 1.705350 -0.541227 16.161800 -0.642636 0.020088 7.677120 14.853600 -19.044300 11.841000 10.406100 -8.908920 2.000000 -2.000000 0.000000 -93.648201 -0.284781 153.886993 73.789597 -0.253016 0.131331 0.212849 -0.160250 130.304993 -2.000000 2.000000 0.000000 87.445396 6.881290 151.675003 -17.949400 0.344910 0.042136 -0.055747 0.020752 -144.352997 -17.872639 8.325322 4.677803 37.293743 2.669549 2.661120 -12.538597 9.030038 2.894316 -9.394498 10.464251 3.588068 22.914490 -2.336752 -1.955981 -14.418837 -13.360507 -3.933293 
-2.647991 44.992607 -0.891394 4.175130 -4.850440 -7.346220 -21.767799 1.692830 -0.602257 16.122801 -0.662075 -0.007260 8.047580 14.661100 -18.758900 11.917500 10.297600 -8.801890 2.000000 -2.000000 0.000000 -94.205299 -0.147056 154.356003 73.750504 -0.253106 0.131305 0.212767 -0.160254 130.334000 -2.000000 2.000000 0.000000 87.533798 6.548190 152.182007 -18.291201 0.344656 0.042911 -0.056284 0.024515 -145.710999 -17.398771 8.286495 4.507967 37.341644 2.686478 2.665730 -12.294263 7.924402 2.634230 -9.363625 10.386969 3.546108 22.993437 -2.344241 -1.985078 -14.471526 -13.250919 -3.924669 
-2.604539 44.980778 -0.881384 4.126130 -4.850740 -7.390920 -21.836201 1.689590 -0.666371 16.113001 -0.691275 -0.043941 8.534110 14.445100 -18.403700 12.052900 10.168200 -8.658170 2.000000 -2.000000 0.000000 -94.664803 -0.067836 154.863007 73.652901 -0.253329 0.131239 0.212767 -0.160254 130.334000 -2.000000 2.000000 0.000000 87.632599 6.135650 153.304993 -18.965099 0.344143 0.044435 -0.057294 0.030335 -147.820007 -16.805862 8.240443 4.348239 37.192616 2.704118 2.644625 -11.933813 6.643213 2.327825 -9.370239 10.315615 3.390844 23.130215 -2.350058 -1.983685 -14.575738 -13.086632 -3.895058 
